<?xml version="1.0" encoding="us-ascii" standalone="no"?><svg xmlns="http://www.w3.org/2000/svg" xmlns:xlink="http://www.w3.org/1999/xlink" contentStyleType="text/css" height="479px" preserveAspectRatio="none" style="width:649px;height:479px;background:#FFFFFF;" version="1.1" viewBox="0 0 649 479" width="649px" zoomAndPan="magnify"><defs/><g><!--cluster Loyaltea - Loyalty Program SaaS--><g id="cluster_Loyaltea - Loyalty Program SaaS"><path d="M8.5,6 L274.5,6 A3.75,3.75 0 0 1 277,8.5 L284,28.2969 L639.5,28.2969 A2.5,2.5 0 0 1 642,30.7969 L642,469.5 A2.5,2.5 0 0 1 639.5,472 L8.5,472 A2.5,2.5 0 0 1 6,469.5 L6,8.5 A2.5,2.5 0 0 1 8.5,6 " fill="none" style="stroke:#000000;stroke-width:1.5;"/><line style="stroke:#000000;stroke-width:1.5;" x1="6" x2="284" y1="28.2969" y2="28.2969"/><text fill="#000000" font-family="sans-serif" font-size="14" font-weight="bold" lengthAdjust="spacing" textLength="265" x="10" y="20.9951">Loyaltea - Loyalty Program SaaS</text></g><!--class Fulfillment--><g id="elem_Fulfillment"><rect codeLine="8" fill="#F1F1F1" height="56.2656" id="Fulfillment" rx="2.5" ry="2.5" style="stroke:#181818;stroke-width:0.5;" width="109" x="259.5" y="297"/><ellipse cx="274.5" cy="317.1328" fill="#ADD1B2" rx="11" ry="11" style="stroke:#181818;stroke-width:1.0;"/><path d="M276.8438,312.8047 C275.9063,312.3672 275.3125,312.2266 274.4375,312.2266 C271.8125,312.2266 269.8125,314.3047 269.8125,317.0234 L269.8125,318.1484 C269.8125,320.7266 271.9219,322.6172 274.8125,322.6172 C276.0313,322.6172 277.1875,322.3203 277.9375,321.7734 C278.5156,321.3672 278.8438,320.9141 278.8438,320.5234 C278.8438,320.0703 278.4531,319.6797 277.9844,319.6797 C277.7656,319.6797 277.5625,319.7578 277.375,319.9453 C276.9219,320.4297 276.9219,320.4297 276.7344,320.5234 C276.3125,320.7891 275.625,320.9141 274.8594,320.9141 C272.8125,320.9141 271.5156,319.8203 271.5156,318.1172 L271.5156,317.0234 C271.5156,315.2422 272.7656,313.9297 274.5,313.9297 C275.0781,313.9297 275.6875,314.0859 276.1563,314.3359 C276.6406,314.6172 276.8125,314.8359 276.9063,315.2422 C276.9688,315.6484 277,315.7734 277.1406,315.8984 C277.2813,316.0391 277.5156,316.1484 277.7344,316.1484 C278,316.1484 278.2656,316.0078 278.4375,315.7891 C278.5469,315.6328 278.5781,315.4453 278.5781,315.0234 L278.5781,313.6016 C278.5781,313.1641 278.5625,313.0391 278.4688,312.8828 C278.3125,312.6172 278.0313,312.4766 277.7344,312.4766 C277.4375,312.4766 277.2344,312.5703 277.0156,312.8828 L276.8438,312.8047 Z " fill="#000000"/><text fill="#000000" font-family="sans-serif" font-size="12" font-style="italic" lengthAdjust="spacing" textLength="56" x="299" y="313.1387">&#171;Python&#187;</text><text fill="#000000" font-family="sans-serif" font-size="14" lengthAdjust="spacing" textLength="77" x="288.5" y="328.9639">Fulfillment</text><line style="stroke:#181818;stroke-width:0.5;" x1="260.5" x2="367.5" y1="337.2656" y2="337.2656"/><line style="stroke:#181818;stroke-width:0.5;" x1="260.5" x2="367.5" y1="345.2656" y2="345.2656"/></g><!--class Rewards--><g id="elem_Rewards"><rect codeLine="9" fill="#F1F1F1" height="56.2656" id="Rewards" rx="2.5" ry="2.5" style="stroke:#181818;stroke-width:0.5;" width="92" x="268" y="41"/><ellipse cx="283" cy="61.1328" fill="#ADD1B2" rx="11" ry="11" style="stroke:#181818;stroke-width:1.0;"/><path d="M285.3438,56.8047 C284.4063,56.3672 283.8125,56.2266 282.9375,56.2266 C280.3125,56.2266 278.3125,58.3047 278.3125,61.0234 L278.3125,62.1484 C278.3125,64.7266 280.4219,66.6172 283.3125,66.6172 C284.5313,66.6172 285.6875,66.3203 286.4375,65.7734 C287.0156,65.3672 287.3438,64.9141 287.3438,64.5234 C287.3438,64.0703 286.9531,63.6797 286.4844,63.6797 C286.2656,63.6797 286.0625,63.7578 285.875,63.9453 C285.4219,64.4297 285.4219,64.4297 285.2344,64.5234 C284.8125,64.7891 284.125,64.9141 283.3594,64.9141 C281.3125,64.9141 280.0156,63.8203 280.0156,62.1172 L280.0156,61.0234 C280.0156,59.2422 281.2656,57.9297 283,57.9297 C283.5781,57.9297 284.1875,58.0859 284.6563,58.3359 C285.1406,58.6172 285.3125,58.8359 285.4063,59.2422 C285.4688,59.6484 285.5,59.7734 285.6406,59.8984 C285.7813,60.0391 286.0156,60.1484 286.2344,60.1484 C286.5,60.1484 286.7656,60.0078 286.9375,59.7891 C287.0469,59.6328 287.0781,59.4453 287.0781,59.0234 L287.0781,57.6016 C287.0781,57.1641 287.0625,57.0391 286.9688,56.8828 C286.8125,56.6172 286.5313,56.4766 286.2344,56.4766 C285.9375,56.4766 285.7344,56.5703 285.5156,56.8828 L285.3438,56.8047 Z " fill="#000000"/><text fill="#000000" font-family="sans-serif" font-size="12" font-style="italic" lengthAdjust="spacing" textLength="56" x="299" y="57.1387">&#171;Python&#187;</text><text fill="#000000" font-family="sans-serif" font-size="14" lengthAdjust="spacing" textLength="60" x="297" y="72.9639">Rewards</text><line style="stroke:#181818;stroke-width:0.5;" x1="269" x2="359" y1="81.2656" y2="81.2656"/><line style="stroke:#181818;stroke-width:0.5;" x1="269" x2="359" y1="89.2656" y2="89.2656"/></g><!--class Campaign--><g id="elem_Campaign"><rect codeLine="10" fill="#F1F1F1" height="56.2656" id="Campaign" rx="2.5" ry="2.5" style="stroke:#181818;stroke-width:0.5;" width="104" x="22" y="41"/><ellipse cx="37" cy="61.1328" fill="#ADD1B2" rx="11" ry="11" style="stroke:#181818;stroke-width:1.0;"/><path d="M39.3438,56.8047 C38.4063,56.3672 37.8125,56.2266 36.9375,56.2266 C34.3125,56.2266 32.3125,58.3047 32.3125,61.0234 L32.3125,62.1484 C32.3125,64.7266 34.4219,66.6172 37.3125,66.6172 C38.5313,66.6172 39.6875,66.3203 40.4375,65.7734 C41.0156,65.3672 41.3438,64.9141 41.3438,64.5234 C41.3438,64.0703 40.9531,63.6797 40.4844,63.6797 C40.2656,63.6797 40.0625,63.7578 39.875,63.9453 C39.4219,64.4297 39.4219,64.4297 39.2344,64.5234 C38.8125,64.7891 38.125,64.9141 37.3594,64.9141 C35.3125,64.9141 34.0156,63.8203 34.0156,62.1172 L34.0156,61.0234 C34.0156,59.2422 35.2656,57.9297 37,57.9297 C37.5781,57.9297 38.1875,58.0859 38.6563,58.3359 C39.1406,58.6172 39.3125,58.8359 39.4063,59.2422 C39.4688,59.6484 39.5,59.7734 39.6406,59.8984 C39.7813,60.0391 40.0156,60.1484 40.2344,60.1484 C40.5,60.1484 40.7656,60.0078 40.9375,59.7891 C41.0469,59.6328 41.0781,59.4453 41.0781,59.0234 L41.0781,57.6016 C41.0781,57.1641 41.0625,57.0391 40.9688,56.8828 C40.8125,56.6172 40.5313,56.4766 40.2344,56.4766 C39.9375,56.4766 39.7344,56.5703 39.5156,56.8828 L39.3438,56.8047 Z " fill="#000000"/><text fill="#000000" font-family="sans-serif" font-size="12" font-style="italic" lengthAdjust="spacing" textLength="46" x="64" y="57.1387">&#171;Scala&#187;</text><text fill="#000000" font-family="sans-serif" font-size="14" lengthAdjust="spacing" textLength="72" x="51" y="72.9639">Campaign</text><line style="stroke:#181818;stroke-width:0.5;" x1="23" x2="125" y1="81.2656" y2="81.2656"/><line style="stroke:#181818;stroke-width:0.5;" x1="23" x2="125" y1="89.2656" y2="89.2656"/></g><!--class Authentication--><g id="elem_Authentication"><rect codeLine="11" fill="#F1F1F1" height="56.2656" id="Authentication" rx="2.5" ry="2.5" style="stroke:#181818;stroke-width:0.5;" width="140" x="486" y="41"/><ellipse cx="501" cy="61.1328" fill="#ADD1B2" rx="11" ry="11" style="stroke:#181818;stroke-width:1.0;"/><path d="M503.3438,56.8047 C502.4063,56.3672 501.8125,56.2266 500.9375,56.2266 C498.3125,56.2266 496.3125,58.3047 496.3125,61.0234 L496.3125,62.1484 C496.3125,64.7266 498.4219,66.6172 501.3125,66.6172 C502.5313,66.6172 503.6875,66.3203 504.4375,65.7734 C505.0156,65.3672 505.3438,64.9141 505.3438,64.5234 C505.3438,64.0703 504.9531,63.6797 504.4844,63.6797 C504.2656,63.6797 504.0625,63.7578 503.875,63.9453 C503.4219,64.4297 503.4219,64.4297 503.2344,64.5234 C502.8125,64.7891 502.125,64.9141 501.3594,64.9141 C499.3125,64.9141 498.0156,63.8203 498.0156,62.1172 L498.0156,61.0234 C498.0156,59.2422 499.2656,57.9297 501,57.9297 C501.5781,57.9297 502.1875,58.0859 502.6563,58.3359 C503.1406,58.6172 503.3125,58.8359 503.4063,59.2422 C503.4688,59.6484 503.5,59.7734 503.6406,59.8984 C503.7813,60.0391 504.0156,60.1484 504.2344,60.1484 C504.5,60.1484 504.7656,60.0078 504.9375,59.7891 C505.0469,59.6328 505.0781,59.4453 505.0781,59.0234 L505.0781,57.6016 C505.0781,57.1641 505.0625,57.0391 504.9688,56.8828 C504.8125,56.6172 504.5313,56.4766 504.2344,56.4766 C503.9375,56.4766 503.7344,56.5703 503.5156,56.8828 L503.3438,56.8047 Z " fill="#000000"/><text fill="#000000" font-family="sans-serif" font-size="12" font-style="italic" lengthAdjust="spacing" textLength="46" x="546" y="57.1387">&#171;Scala&#187;</text><text fill="#000000" font-family="sans-serif" font-size="14" lengthAdjust="spacing" textLength="108" x="515" y="72.9639">Authentication</text><line style="stroke:#181818;stroke-width:0.5;" x1="487" x2="625" y1="81.2656" y2="81.2656"/><line style="stroke:#181818;stroke-width:0.5;" x1="487" x2="625" y1="89.2656" y2="89.2656"/></g><!--entity PostgreSQL--><g id="elem_PostgreSQL"><path d="M129,184.5 C129,174.5 181,174.5 181,174.5 C181,174.5 233,174.5 233,184.5 L233,209.7969 C233,219.7969 181,219.7969 181,219.7969 C181,219.7969 129,219.7969 129,209.7969 L129,184.5 " fill="#F1F1F1" style="stroke:#181818;stroke-width:0.5;"/><path d="M129,184.5 C129,194.5 181,194.5 181,194.5 C181,194.5 233,194.5 233,184.5 " fill="none" style="stroke:#181818;stroke-width:0.5;"/><text fill="#000000" font-family="sans-serif" font-size="14" lengthAdjust="spacing" textLength="84" x="139" y="211.4951">PostgreSQL</text></g><!--entity Kafka--><g id="elem_Kafka"><path d="M75.5,430 L126.5,430 C131.5,430 131.5,443.1484 131.5,443.1484 C131.5,443.1484 131.5,456.2969 126.5,456.2969 L75.5,456.2969 C70.5,456.2969 70.5,443.1484 70.5,443.1484 C70.5,443.1484 70.5,430 75.5,430 " fill="#F1F1F1" style="stroke:#181818;stroke-width:0.5;"/><path d="M126.5,430 C121.5,430 121.5,443.1484 121.5,443.1484 C121.5,456.2969 126.5,456.2969 126.5,456.2969 " fill="none" style="stroke:#181818;stroke-width:0.5;"/><text fill="#000000" font-family="sans-serif" font-size="14" lengthAdjust="spacing" textLength="41" x="75.5" y="447.9951">Kafka</text></g><!--entity GRPC--><g id="elem_GRPC"><polygon fill="#F1F1F1" points="274,184,284,174,354,174,354,210.2969,344,220.2969,274,220.2969,274,184" style="stroke:#181818;stroke-width:0.5;"/><line style="stroke:#181818;stroke-width:0.5;" x1="344" x2="354" y1="184" y2="174"/><line style="stroke:#181818;stroke-width:0.5;" x1="274" x2="344" y1="184" y2="184"/><line style="stroke:#181818;stroke-width:0.5;" x1="344" x2="344" y1="184" y2="220.2969"/><text fill="#000000" font-family="sans-serif" font-size="14" lengthAdjust="spacing" textLength="40" x="289" y="206.9951">GRPC</text></g><!--link Fulfillment to Kafka--><g id="link_Fulfillment_Kafka"><path codeLine="16" d="M264.33,353.05 C219.706,377.352 161.5272,409.0365 128.3782,427.0898 " fill="none" id="Fulfillment-to-Kafka" style="stroke:#181818;stroke-width:1.0;"/><polygon fill="#181818" points="123.109,429.9595,132.926,429.1678,127.5,427.5681,129.0997,422.1421,123.109,429.9595" style="stroke:#181818;stroke-width:1.0;"/><text fill="#000000" font-family="sans-serif" font-size="13" lengthAdjust="spacing" textLength="154" x="209" y="396.0669">sends fulfillment events</text></g><!--link Kafka to Campaign--><g id="link_Kafka_Campaign"><path codeLine="17" d="M100.129,429.9993 C96.357,378.025 81.8101,177.6063 76.3978,103.0373 " fill="none" id="Kafka-to-Campaign" style="stroke:#181818;stroke-width:1.0;"/><polygon fill="#181818" points="75.9635,97.053,72.6255,106.3189,76.3255,102.0399,80.6045,105.7398,75.9635,97.053" style="stroke:#181818;stroke-width:1.0;"/><text fill="#000000" font-family="sans-serif" font-size="13" lengthAdjust="spacing" textLength="101" x="90" y="263.0669">streams events</text></g><!--link Campaign to Rewards--><g id="link_Campaign_Rewards"><path codeLine="18" d="M126.076,69 C168.263,69 221.148,69 261.703,69 " fill="none" id="Campaign-to-Rewards" style="stroke:#181818;stroke-width:1.0;"/><polygon fill="#181818" points="267.703,69,258.703,65,262.703,69,258.703,73,267.703,69" style="stroke:#181818;stroke-width:1.0;"/><text fill="#000000" font-family="sans-serif" font-size="13" lengthAdjust="spacing" textLength="105" x="144.5" y="62.0669">triggers rewards</text></g><!--reverse link Fulfillment to Authentication--><g id="link_Fulfillment_Authentication"><path codeLine="19" d="M356.6391,293.1502 C400.1451,260.4662 467.043,205.892 516,144 C527.325,129.683 537.127,111.704 544.194,97.053 " fill="none" id="Fulfillment-backto-Authentication" style="stroke:#181818;stroke-width:1.0;"/><polygon fill="#181818" points="351.842,296.754,361.4402,294.5463,355.8396,293.7508,356.6351,288.1502,351.842,296.754" style="stroke:#181818;stroke-width:1.0;"/><text fill="#000000" font-family="sans-serif" font-size="13" lengthAdjust="spacing" textLength="89" x="490" y="201.5669">auth requests</text></g><!--reverse link Rewards to Authentication--><g id="link_Rewards_Authentication"><path codeLine="20" d="M366.088,69 C401.606,69 445.323,69 485.784,69 " fill="none" id="Rewards-backto-Authentication" style="stroke:#181818;stroke-width:1.0;"/><polygon fill="#181818" points="360.088,69,369.088,73,365.088,69,369.088,65,360.088,69" style="stroke:#181818;stroke-width:1.0;"/><text fill="#000000" font-family="sans-serif" font-size="13" lengthAdjust="spacing" textLength="89" x="378.5" y="62.0669">auth requests</text></g><!--link Authentication to PostgreSQL--><g id="link_Authentication_PostgreSQL"><path codeLine="21" d="M485.675,93.364 C454.78,103.649 418.077,115.893 385,127 C333.43,144.316 280.2641,162.3108 239.0701,176.2828 " fill="none" id="Authentication-to-PostgreSQL" style="stroke:#181818;stroke-width:1.0;"/><polygon fill="#181818" points="233.388,178.21,243.1959,179.1072,238.1231,176.604,240.6263,171.5311,233.388,178.21" style="stroke:#181818;stroke-width:1.0;"/><text fill="#000000" font-family="sans-serif" font-size="13" lengthAdjust="spacing" textLength="105" x="386" y="140.0669">stores user data</text></g><!--reverse link Campaign to PostgreSQL--><g id="link_Campaign_PostgreSQL"><path codeLine="22" d="M100.8377,101.6035 C120.4877,124.7435 144.522,153.045 162.697,174.447 " fill="none" id="Campaign-backto-PostgreSQL" style="stroke:#181818;stroke-width:1.0;"/><polygon fill="#181818" points="96.954,97.03,99.7306,106.4794,100.1904,100.8412,105.8286,101.3011,96.954,97.03" style="stroke:#181818;stroke-width:1.0;"/><text fill="#000000" font-family="sans-serif" font-size="13" lengthAdjust="spacing" textLength="96" x="135" y="140.0669">campaign data</text></g><!--link GRPC to Authentication--><!--link Authentication to GRPC--><g id="link_Authentication_GRPC"><path codeLine="27" d="M524.102,97.124 C508.651,115.498 492.455,137.562 483,144 C443.645,170.797 390.721,183.866 354.291,190.191 " fill="none" id="Authentication-GRPC" style="stroke:#181818;stroke-width:1.0;"/></g><!--link GRPC to Fulfillment--><!--link Fulfillment to GRPC--><g id="link_Fulfillment_GRPC"><path codeLine="28" d="M325.349,296.719 C328.453,273.839 328.198,241.572 324.583,220.236 " fill="none" id="Fulfillment-GRPC" style="stroke:#181818;stroke-width:1.0;"/></g><!--link GRPC to Rewards--><!--link Rewards to GRPC--><g id="link_Rewards_GRPC"><path codeLine="29" d="M303.314,97.03 C300.354,119.88 300.578,152.224 303.985,173.639 " fill="none" id="Rewards-GRPC" style="stroke:#181818;stroke-width:1.0;"/></g><!--link GRPC to Campaign--><!--link Campaign to GRPC--><g id="link_Campaign_GRPC"><path codeLine="30" d="M126.028,86.175 C155.769,95.4 192.694,108.809 223,127 C243.934,139.566 263.952,158.828 280.597,173.811 " fill="none" id="Campaign-GRPC" style="stroke:#181818;stroke-width:1.0;"/></g><!--SRC=[XLBBJiCm4BpdAvRUymDLLIcKW2fwI1FA1N5OaarYrR6BxL0gnB_ZEatgFe0S8djsnhipDd8kjmtxPA8AWfk2IYO8iZXzdizYo3bgFQ1tqLDq6sKn56Zm3JKDbUKgNiNmtb9BGR31V8qLmMWXTyWD8OJGBNUGA5afR213p4Rm5O3z-cRtBIyPvmq90vD9iZEr5DFf2IMbBQf2_rQUORD1LWbRptBaU5QEMbFRmrcEXibpqc0kaTfKYhBbmk6TjKSir-ZsGXO43sao2zpM7peiv5Q4quuCOz0axAobnw0F-zTEs95woJ2vLHb5s6YVErH3nQhQM7uVn1YCXIfI6bG7ES6Pqv1JkLVvmuu1BScgxArfywVisEn_oS7FCKJdI2hIq6fIxkaueSVe-tWXvFrouEyZX_2bPaL1ujMoJpjVvtY6hnDIBxIBOZ_FLQDXzmWkte27zxdvsF4g3-3t3m00]--></g></svg>