<?xml version="1.0" encoding="us-ascii" standalone="no"?><svg xmlns="http://www.w3.org/2000/svg" xmlns:xlink="http://www.w3.org/1999/xlink" contentStyleType="text/css" height="389px" preserveAspectRatio="none" style="width:656px;height:389px;background:#FFFFFF;" version="1.1" viewBox="0 0 656 389" width="656px" zoomAndPan="magnify"><defs/><g><!--cluster Loyaltea - Loyalty Program SaaS--><g id="cluster_Loyaltea - Loyalty Program SaaS"><path d="M8.5,6 L243.5,6 A3.75,3.75 0 0 1 246,8.5 L253,28.4883 L646.5,28.4883 A2.5,2.5 0 0 1 649,30.9883 L649,379.5 A2.5,2.5 0 0 1 646.5,382 L8.5,382 A2.5,2.5 0 0 1 6,379.5 L6,8.5 A2.5,2.5 0 0 1 8.5,6 " fill="none" style="stroke:#000000;stroke-width:1.5;"/><line style="stroke:#000000;stroke-width:1.5;" x1="6" x2="253" y1="28.4883" y2="28.4883"/><text fill="#000000" font-family="sans-serif" font-size="14" font-weight="bold" lengthAdjust="spacing" textLength="234" x="10" y="21.5352">Loyaltea - Loyalty Program SaaS</text></g><!--class Fulfillment--><g id="elem_Fulfillment"><rect codeLine="9" fill="#F1F1F1" height="56.6211" id="Fulfillment" rx="2.5" ry="2.5" style="stroke:#181818;stroke-width:0.5;" width="105" x="99.5" y="41"/><ellipse cx="114.5" cy="61.3105" fill="#ADD1B2" rx="11" ry="11" style="stroke:#181818;stroke-width:1.0;"/><path d="M117.4731,66.9536 Q116.8921,67.2524 116.2529,67.4019 Q115.6138,67.5513 114.9082,67.5513 Q112.4014,67.5513 111.0815,65.8994 Q109.7617,64.2476 109.7617,61.1265 Q109.7617,57.9971 111.0815,56.3452 Q112.4014,54.6934 114.9082,54.6934 Q115.6138,54.6934 116.2612,54.8428 Q116.9087,54.9922 117.4731,55.291 L117.4731,58.0137 Q116.8423,57.4326 116.2488,57.1628 Q115.6553,56.8931 115.0244,56.8931 Q113.6797,56.8931 112.9949,57.9597 Q112.3101,59.0264 112.3101,61.1265 Q112.3101,63.2183 112.9949,64.2849 Q113.6797,65.3516 115.0244,65.3516 Q115.6553,65.3516 116.2488,65.0818 Q116.8423,64.812 117.4731,64.231 Z " fill="#000000"/><text fill="#000000" font-family="sans-serif" font-size="12" font-style="italic" lengthAdjust="spacing" textLength="50" x="140" y="57.6016">&#171;Python&#187;</text><text fill="#000000" font-family="sans-serif" font-size="14" lengthAdjust="spacing" textLength="73" x="128.5" y="73.668">Fulfillment</text><line style="stroke:#181818;stroke-width:0.5;" x1="100.5" x2="203.5" y1="81.6211" y2="81.6211"/><line style="stroke:#181818;stroke-width:0.5;" x1="100.5" x2="203.5" y1="89.6211" y2="89.6211"/></g><!--class Reward--><g id="elem_Reward"><rect codeLine="10" fill="#F1F1F1" height="56.6211" id="Reward" rx="2.5" ry="2.5" style="stroke:#181818;stroke-width:0.5;" width="83" x="165.5" y="309"/><ellipse cx="180.5" cy="329.3105" fill="#ADD1B2" rx="11" ry="11" style="stroke:#181818;stroke-width:1.0;"/><path d="M183.4731,334.9536 Q182.8921,335.2524 182.2529,335.4019 Q181.6138,335.5513 180.9082,335.5513 Q178.4014,335.5513 177.0815,333.8994 Q175.7617,332.2476 175.7617,329.1265 Q175.7617,325.9971 177.0815,324.3452 Q178.4014,322.6934 180.9082,322.6934 Q181.6138,322.6934 182.2612,322.8428 Q182.9087,322.9922 183.4731,323.291 L183.4731,326.0137 Q182.8423,325.4326 182.2488,325.1628 Q181.6553,324.8931 181.0244,324.8931 Q179.6797,324.8931 178.9949,325.9597 Q178.3101,327.0264 178.3101,329.1265 Q178.3101,331.2183 178.9949,332.2849 Q179.6797,333.3516 181.0244,333.3516 Q181.6553,333.3516 182.2488,333.0818 Q182.8423,332.812 183.4731,332.231 Z " fill="#000000"/><text fill="#000000" font-family="sans-serif" font-size="12" font-style="italic" lengthAdjust="spacing" textLength="50" x="195" y="325.6016">&#171;Python&#187;</text><text fill="#000000" font-family="sans-serif" font-size="14" lengthAdjust="spacing" textLength="51" x="194.5" y="341.668">Reward</text><line style="stroke:#181818;stroke-width:0.5;" x1="166.5" x2="247.5" y1="349.6211" y2="349.6211"/><line style="stroke:#181818;stroke-width:0.5;" x1="166.5" x2="247.5" y1="357.6211" y2="357.6211"/></g><!--class Campaign--><g id="elem_Campaign"><rect codeLine="11" fill="#F1F1F1" height="56.6211" id="Campaign" rx="2.5" ry="2.5" style="stroke:#181818;stroke-width:0.5;" width="102" x="293" y="175"/><ellipse cx="308" cy="195.3105" fill="#ADD1B2" rx="11" ry="11" style="stroke:#181818;stroke-width:1.0;"/><path d="M310.9731,200.9536 Q310.3921,201.2524 309.7529,201.4019 Q309.1138,201.5513 308.4082,201.5513 Q305.9014,201.5513 304.5815,199.8994 Q303.2617,198.2476 303.2617,195.1265 Q303.2617,191.9971 304.5815,190.3452 Q305.9014,188.6934 308.4082,188.6934 Q309.1138,188.6934 309.7612,188.8428 Q310.4087,188.9922 310.9731,189.291 L310.9731,192.0137 Q310.3423,191.4326 309.7488,191.1628 Q309.1553,190.8931 308.5244,190.8931 Q307.1797,190.8931 306.4949,191.9597 Q305.8101,193.0264 305.8101,195.1265 Q305.8101,197.2183 306.4949,198.2849 Q307.1797,199.3516 308.5244,199.3516 Q309.1553,199.3516 309.7488,199.0818 Q310.3423,198.812 310.9731,198.231 Z " fill="#000000"/><text fill="#000000" font-family="sans-serif" font-size="12" font-style="italic" lengthAdjust="spacing" textLength="41" x="336.5" y="191.6016">&#171;Scala&#187;</text><text fill="#000000" font-family="sans-serif" font-size="14" lengthAdjust="spacing" textLength="70" x="322" y="207.668">Campaign</text><line style="stroke:#181818;stroke-width:0.5;" x1="294" x2="394" y1="215.6211" y2="215.6211"/><line style="stroke:#181818;stroke-width:0.5;" x1="294" x2="394" y1="223.6211" y2="223.6211"/></g><!--class User--><g id="elem_User"><rect codeLine="12" fill="#F1F1F1" height="56.6211" id="User" rx="2.5" ry="2.5" style="stroke:#181818;stroke-width:0.5;" width="69" x="563.5" y="175"/><ellipse cx="578.5" cy="195.3105" fill="#ADD1B2" rx="11" ry="11" style="stroke:#181818;stroke-width:1.0;"/><path d="M581.4731,200.9536 Q580.8921,201.2524 580.2529,201.4019 Q579.6138,201.5513 578.9082,201.5513 Q576.4014,201.5513 575.0815,199.8994 Q573.7617,198.2476 573.7617,195.1265 Q573.7617,191.9971 575.0815,190.3452 Q576.4014,188.6934 578.9082,188.6934 Q579.6138,188.6934 580.2612,188.8428 Q580.9087,188.9922 581.4731,189.291 L581.4731,192.0137 Q580.8423,191.4326 580.2488,191.1628 Q579.6553,190.8931 579.0244,190.8931 Q577.6797,190.8931 576.9949,191.9597 Q576.3101,193.0264 576.3101,195.1265 Q576.3101,197.2183 576.9949,198.2849 Q577.6797,199.3516 579.0244,199.3516 Q579.6553,199.3516 580.2488,199.0818 Q580.8423,198.812 581.4731,198.231 Z " fill="#000000"/><text fill="#000000" font-family="sans-serif" font-size="12" font-style="italic" lengthAdjust="spacing" textLength="41" x="590.5" y="191.6016">&#171;Scala&#187;</text><text fill="#000000" font-family="sans-serif" font-size="14" lengthAdjust="spacing" textLength="31" x="595.5" y="207.668">User</text><line style="stroke:#181818;stroke-width:0.5;" x1="564.5" x2="631.5" y1="215.6211" y2="215.6211"/><line style="stroke:#181818;stroke-width:0.5;" x1="564.5" x2="631.5" y1="223.6211" y2="223.6211"/></g><!--entity PostgreSQL--><g id="elem_PostgreSQL"><path d="M430,191 C430,181 479,181 479,181 C479,181 528,181 528,191 L528,216.4883 C528,226.4883 479,226.4883 479,226.4883 C479,226.4883 430,226.4883 430,216.4883 L430,191 " fill="#F1F1F1" style="stroke:#181818;stroke-width:0.5;"/><path d="M430,191 C430,201 479,201 479,201 C479,201 528,201 528,191 " fill="none" style="stroke:#181818;stroke-width:0.5;"/><text fill="#000000" font-family="sans-serif" font-size="14" lengthAdjust="spacing" textLength="78" x="440" y="218.5352">PostgreSQL</text></g><!--entity Kafka--><g id="elem_Kafka"><path d="M27,190.5 L75,190.5 C80,190.5 80,203.7441 80,203.7441 C80,203.7441 80,216.9883 75,216.9883 L27,216.9883 C22,216.9883 22,203.7441 22,203.7441 C22,203.7441 22,190.5 27,190.5 " fill="#F1F1F1" style="stroke:#181818;stroke-width:0.5;"/><path d="M75,190.5 C70,190.5 70,203.7441 70,203.7441 C70,216.9883 75,216.9883 75,216.9883 " fill="none" style="stroke:#181818;stroke-width:0.5;"/><text fill="#000000" font-family="sans-serif" font-size="14" lengthAdjust="spacing" textLength="38" x="27" y="209.0352">Kafka</text></g><!--link Fulfillment to Kafka--><g id="link_Fulfillment_Kafka"><path codeLine="16" d="M130.83,98.17 C109.08,126.6 79.8667,164.7754 63.9467,185.5754 " fill="none" id="Fulfillment-to-Kafka" style="stroke:#181818;stroke-width:1.0;"/><polygon fill="#181818" points="60.3,190.34,68.9465,185.6243,63.339,186.3695,62.5937,180.762,60.3,190.34" style="stroke:#181818;stroke-width:1.0;"/><text fill="#000000" font-family="sans-serif" font-size="13" lengthAdjust="spacing" textLength="165" x="108" y="141.5684">Produce fulfillment events</text></g><!--link Kafka to Campaign--><g id="link_Kafka_Campaign"><path codeLine="17" d="M80.17,203.5 C129.81,203.5 225.35,203.5 286.97,203.5 " fill="none" id="Kafka-to-Campaign" style="stroke:#181818;stroke-width:1.0;"/><polygon fill="#181818" points="292.97,203.5,283.97,199.5,287.97,203.5,283.97,207.5,292.97,203.5" style="stroke:#181818;stroke-width:1.0;"/><text fill="#000000" font-family="sans-serif" font-size="13" lengthAdjust="spacing" textLength="176" x="98.5" y="197.0684">Consume Fulfillment events</text></g><!--reverse link Kafka to Campaign--><g id="link_Kafka_Campaign"><path codeLine="18" d="M85.7949,216.7987 C96.1649,220.2987 102.36,221.76 113.5,223.5 C145.56,228.5 227.27,227.26 259.5,223.5 C270.43,222.22 282,220.05 292.95,217.59 " fill="none" id="Kafka-backto-Campaign" style="stroke:#181818;stroke-width:1.0;"/><polygon fill="#181818" points="80.11,214.88,87.3582,221.5481,84.8474,216.4789,89.9166,213.9681,80.11,214.88" style="stroke:#181818;stroke-width:1.0;"/><text fill="#000000" font-family="sans-serif" font-size="13" lengthAdjust="spacing" textLength="144" x="114.5" y="220.0684">Produce Reward events</text></g><!--link Kafka to Reward--><g id="link_Kafka_Reward"><path codeLine="19" d="M65.4,216.68 C89.99,237.49 136.0901,276.4939 169.6701,304.9139 " fill="none" id="Kafka-to-Reward" style="stroke:#181818;stroke-width:1.0;"/><polygon fill="#181818" points="174.25,308.79,169.9642,299.9225,170.4334,305.5599,164.796,306.0291,174.25,308.79" style="stroke:#181818;stroke-width:1.0;"/><text fill="#000000" font-family="sans-serif" font-size="13" lengthAdjust="spacing" textLength="153" x="139" y="275.5684">Consume Reward events</text></g><!--link Fulfillment to PostgreSQL--><g id="link_Fulfillment_PostgreSQL"><path codeLine="20" d="M210.157,93.513 C262.927,114.453 340.93,145.56 413,175 C418.4,177.21 418.494,177.2405 424.114,179.5605 " fill="none" id="Fulfillment-PostgreSQL" style="stroke:#181818;stroke-width:1.0;"/><polygon fill="#181818" points="204.58,91.3,211.4701,98.3375,209.2275,93.1442,214.4208,90.9016,204.58,91.3" style="stroke:#181818;stroke-width:1.0;"/><polygon fill="#181818" points="429.66,181.85,422.8673,174.7185,425.0383,179.9421,419.8147,182.1132,429.66,181.85" style="stroke:#181818;stroke-width:1.0;"/></g><!--link Campaign to PostgreSQL--><g id="link_Campaign_PostgreSQL"><path codeLine="21" d="M401.15,203.5 C412.73,203.5 412.3,203.5 423.87,203.5 " fill="none" id="Campaign-PostgreSQL" style="stroke:#181818;stroke-width:1.0;"/><polygon fill="#181818" points="395.15,203.5,404.15,207.5,400.15,203.5,404.15,199.5,395.15,203.5" style="stroke:#181818;stroke-width:1.0;"/><polygon fill="#181818" points="429.87,203.5,420.87,199.5,424.87,203.5,420.87,207.5,429.87,203.5" style="stroke:#181818;stroke-width:1.0;"/></g><!--link PostgreSQL to Reward--><g id="link_PostgreSQL_Reward"><path codeLine="22" d="M429.2924,228.6202 C377.8124,253.6102 304.308,289.2804 254.008,313.6904 " fill="none" id="PostgreSQL-Reward" style="stroke:#181818;stroke-width:1.0;"/><polygon fill="#181818" points="434.69,226,424.8467,226.3318,430.192,228.1835,428.3403,233.5287,434.69,226" style="stroke:#181818;stroke-width:1.0;"/><polygon fill="#181818" points="248.61,316.31,258.4533,315.9793,253.1083,314.127,254.9606,308.782,248.61,316.31" style="stroke:#181818;stroke-width:1.0;"/></g><!--link PostgreSQL to User--><g id="link_PostgreSQL_User"><path codeLine="23" d="M534.27,203.5 C545.99,203.5 545.7,203.5 557.41,203.5 " fill="none" id="PostgreSQL-User" style="stroke:#181818;stroke-width:1.0;"/><polygon fill="#181818" points="528.27,203.5,537.27,207.5,533.27,203.5,537.27,199.5,528.27,203.5" style="stroke:#181818;stroke-width:1.0;"/><polygon fill="#181818" points="563.41,203.5,554.41,199.5,558.41,203.5,554.41,207.5,563.41,203.5" style="stroke:#181818;stroke-width:1.0;"/></g><!--SRC=[TP1DReCm48NtFiKqUouGHKYKKgbg5YGktKzX85QCJR5TYghUlVmaX8JK2ykQxxsPUKOfTLEARw4AnXuooeKYuD7-_IMC89Lep5Hz2jw2nu17aA753pGqaLqI9H5yEdB4M8Nf4Gk2rLQtA2qXU30-MuXhNTHO0aVaA_XXq9tpi6SdSo5bISh2PXEtzg2Lxrz9zjHWdVr7Gomh58NgE4zHuWrE3DKtQ4eKQsEBclXkEzJ7FA-O7v4DXVbkdkUF2DPzdiob1FcCqrTtcy4sodh3jDiQGgsCA-cgvyApyUQMyvXJ_hiJJkpIVoc-fEpwkweppNPOAYJbThRwKf3fHasJbxWMnQ5lq7yy-sL_]--></g></svg>